<svg width="33" height="32" viewBox="0 0 33 32" fill="none" xmlns="http://www.w3.org/2000/svg">
<path d="M27.4137 23.5435C23.9223 23.9279 20.1425 24.0241 16.4908 24.0241C12.8392 24.0241 9.05928 23.9279 5.53579 23.5435C4.54291 23.4475 4.03032 23.1912 3.90225 22.1341C3.71 20.1161 3.71 18.0661 3.71 15.9841C3.71 13.9339 3.71 11.8839 3.90225 9.86599C4.03032 8.80895 4.54291 8.55267 5.53579 8.45647C9.05928 8.07211 12.8392 7.97605 16.4908 7.97605C20.1425 7.97605 23.9223 8.07211 27.4137 8.4566C28.4388 8.55267 28.9513 8.80895 29.0794 9.86587C29.2395 11.8839 29.2395 13.9339 29.2395 15.9841C29.2395 18.0661 29.2395 20.1161 29.0794 22.1343C28.9513 23.1912 28.4388 23.4475 27.4137 23.5435ZM16.4908 -1.48625e-06C7.68202 -1.48625e-06 0.506836 7.17529 0.506836 15.984C0.506836 24.8248 7.68202 32 16.4908 32C25.2996 32 32.5068 24.8248 32.5068 15.984C32.5068 7.17529 25.2996 -1.48625e-06 16.4908 -1.48625e-06Z" fill="#6A52FA"/>
<path d="M10.0195 15.9829C10.0195 12.4594 12.8383 9.51256 16.49 9.51256C20.1416 9.51256 22.9605 12.4594 22.9605 15.9829C22.9605 19.5384 20.1416 22.4854 16.49 22.4854C12.8383 22.4854 10.0195 19.5384 10.0195 15.9829Z" fill="#6A52FA"/>
</svg>